<?xml version="1.0" encoding="UTF-8" standalone="no"?>
<!-- Created with Inkscape (http://www.inkscape.org/) -->

<svg
   xmlns:dc="http://purl.org/dc/elements/1.1/"
   xmlns:cc="http://creativecommons.org/ns#"
   xmlns:rdf="http://www.w3.org/1999/02/22-rdf-syntax-ns#"
   xmlns:svg="http://www.w3.org/2000/svg"
   xmlns="http://www.w3.org/2000/svg"
   xmlns:sodipodi="http://sodipodi.sourceforge.net/DTD/sodipodi-0.dtd"
   xmlns:inkscape="http://www.inkscape.org/namespaces/inkscape"
   id="svg2"
   version="1.1"
   inkscape:version="0.48.3.1 r9886"
   width="734.49586"
   height="836.72449"
   xml:space="preserve"
   sodipodi:docname="pla.png"><metadata
     id="metadata8"><rdf:RDF><cc:Work
         rdf:about=""><dc:format>image/svg+xml</dc:format><dc:type
           rdf:resource="http://purl.org/dc/dcmitype/StillImage" /><dc:title></dc:title></cc:Work></rdf:RDF></metadata><defs
     id="defs6" /><sodipodi:namedview
     pagecolor="#ffffff"
     bordercolor="#666666"
     borderopacity="1"
     objecttolerance="10"
     gridtolerance="10"
     guidetolerance="10"
     inkscape:pageopacity="0"
     inkscape:pageshadow="2"
     inkscape:window-width="1680"
     inkscape:window-height="995"
     id="namedview4"
     showgrid="true"
     inkscape:zoom="0.79776415"
     inkscape:cx="367.24792"
     inkscape:cy="418.36224"
     inkscape:window-x="1277"
     inkscape:window-y="-3"
     inkscape:window-maximized="1"
     inkscape:current-layer="g10"><inkscape:grid
       type="xygrid"
       id="grid3419" /></sodipodi:namedview><g
     id="g10"
     inkscape:groupmode="layer"
     inkscape:label="pla"
     transform="matrix(1.25,0,0,-1.25,-2.3274275,922.95386)"><g
       id="g12"><path
         d="m 106.91836,736 0,-12 -7.360916,0 0,-16 7.360916,0 0,-8"
         style="fill:none;stroke:#000000;stroke-opacity:1;stroke-width:0.4;stroke-linecap:butt;stroke-linejoin:round;stroke-miterlimit:10;stroke-dasharray:none"
         id="path14" /></g><g
       id="g16"><path
         d="m 95.876983,724 0,-16"
         style="fill:none;stroke:#000000;stroke-opacity:1;stroke-width:0.4;stroke-linecap:butt;stroke-linejoin:round;stroke-miterlimit:10;stroke-dasharray:none"
         id="path18" /></g><g
       id="g20"><path
         d="m 88.516063,96 0,544"
         style="fill:none;stroke:#000000;stroke-opacity:1;stroke-width:0.4;stroke-linecap:butt;stroke-linejoin:round;stroke-miterlimit:10;stroke-dasharray:none"
         id="path22" /></g><g
       id="g24"><path
         d="m 265.17815,96 0,544"
         style="fill:none;stroke:#000000;stroke-opacity:1;stroke-width:0.4;stroke-linecap:butt;stroke-linejoin:round;stroke-miterlimit:10;stroke-dasharray:none"
         id="path26" /></g><g
       id="g28"><path
         d="m 176.8471,96 0,544"
         style="fill:none;stroke:#000000;stroke-opacity:1;stroke-width:0.4;stroke-linecap:butt;stroke-linejoin:round;stroke-miterlimit:10;stroke-dasharray:none"
         id="path30" /></g><g
       id="g32"><path
         d="m 353.50919,96 0,544"
         style="fill:none;stroke:#000000;stroke-opacity:1;stroke-width:0.4;stroke-linecap:butt;stroke-linejoin:round;stroke-miterlimit:10;stroke-dasharray:none"
         id="path34" /></g><g
       id="g36"><path
         d="m 114.27928,700 -14.721836,0"
         style="fill:none;stroke:#000000;stroke-opacity:1;stroke-width:0.4;stroke-linecap:butt;stroke-linejoin:round;stroke-miterlimit:10;stroke-dasharray:none"
         id="path38" /></g><g
       id="g40"><path
         d="m 103.2379,696 7.36092,0"
         style="fill:none;stroke:#000000;stroke-opacity:1;stroke-width:0.4;stroke-linecap:butt;stroke-linejoin:round;stroke-miterlimit:10;stroke-dasharray:none"
         id="path42" /></g><g
       id="g44"><path
         d="m 95.876983,716 -7.36092,0"
         style="fill:none;stroke:#000000;stroke-opacity:1;stroke-width:0.4;stroke-linecap:butt;stroke-linejoin:round;stroke-miterlimit:10;stroke-dasharray:none"
         id="path46" /></g><g
       id="g48"><path
         d="m 515.44943,96 0,544"
         style="fill:none;stroke:#000000;stroke-opacity:1;stroke-width:0.4;stroke-linecap:butt;stroke-linejoin:round;stroke-miterlimit:10;stroke-dasharray:none"
         id="path50" /></g><g
       id="g52"><path
         d="m 559.61495,96 0,544"
         style="fill:none;stroke:#000000;stroke-opacity:1;stroke-width:0.4;stroke-linecap:butt;stroke-linejoin:round;stroke-miterlimit:10;stroke-dasharray:none"
         id="path54" /></g><g
       id="g56"><path
         d="m 59.072383,608 529.986247,0"
         style="fill:none;stroke:#000000;stroke-opacity:1;stroke-width:0.4;stroke-linecap:butt;stroke-linejoin:round;stroke-miterlimit:10;stroke-dasharray:none"
         id="path58" /></g><g
       id="g60"><path
         d="m 59.072383,560 529.986247,0"
         style="fill:none;stroke:#000000;stroke-opacity:1;stroke-width:0.4;stroke-linecap:butt;stroke-linejoin:round;stroke-miterlimit:10;stroke-dasharray:none"
         id="path62" /></g><g
       id="g64"><path
         d="m 59.072383,512 529.986247,0"
         style="fill:none;stroke:#000000;stroke-opacity:1;stroke-width:0.4;stroke-linecap:butt;stroke-linejoin:round;stroke-miterlimit:10;stroke-dasharray:none"
         id="path66" /></g><g
       id="g68"><path
         d="m 59.072383,464 529.986247,0"
         style="fill:none;stroke:#000000;stroke-opacity:1;stroke-width:0.4;stroke-linecap:butt;stroke-linejoin:round;stroke-miterlimit:10;stroke-dasharray:none"
         id="path70" /></g><g
       id="g72"><path
         d="m 59.072383,416 529.986247,0"
         style="fill:none;stroke:#000000;stroke-opacity:1;stroke-width:0.4;stroke-linecap:butt;stroke-linejoin:round;stroke-miterlimit:10;stroke-dasharray:none"
         id="path74" /></g><g
       id="g76"><path
         d="m 59.072383,368 529.986247,0"
         style="fill:none;stroke:#000000;stroke-opacity:1;stroke-width:0.4;stroke-linecap:butt;stroke-linejoin:round;stroke-miterlimit:10;stroke-dasharray:none"
         id="path78" /></g><g
       id="g80"><path
         d="m 59.072383,320 529.986247,0"
         style="fill:none;stroke:#000000;stroke-opacity:1;stroke-width:0.4;stroke-linecap:butt;stroke-linejoin:round;stroke-miterlimit:10;stroke-dasharray:none"
         id="path82" /></g><g
       id="g84"><path
         d="m 59.072383,272 529.986247,0"
         style="fill:none;stroke:#000000;stroke-opacity:1;stroke-width:0.4;stroke-linecap:butt;stroke-linejoin:round;stroke-miterlimit:10;stroke-dasharray:none"
         id="path86" /></g><g
       id="g88"><path
         d="m 59.072383,224 529.986247,0"
         style="fill:none;stroke:#000000;stroke-opacity:1;stroke-width:0.4;stroke-linecap:butt;stroke-linejoin:round;stroke-miterlimit:10;stroke-dasharray:none"
         id="path90" /></g><g
       id="g92"><path
         d="m 59.072383,176 529.986247,0"
         style="fill:none;stroke:#000000;stroke-opacity:1;stroke-width:0.4;stroke-linecap:butt;stroke-linejoin:round;stroke-miterlimit:10;stroke-dasharray:none"
         id="path94" /></g><g
       id="g96"><path
         d="m 59.072383,176 529.986247,0"
         style="fill:none;stroke:#000000;stroke-opacity:1;stroke-width:0.4;stroke-linecap:butt;stroke-linejoin:round;stroke-miterlimit:10;stroke-dasharray:none"
         id="path98" /></g><g
       id="g100"><path
         d="m 221.01263,716 -11.04138,0 0,8 -14.72185,0 0,-8 -7.36091,0"
         style="fill:none;stroke:#000000;stroke-opacity:1;stroke-width:0.4;stroke-linecap:butt;stroke-linejoin:round;stroke-miterlimit:10;stroke-dasharray:none"
         id="path102" /></g><g
       id="g104"><path
         d="m 209.97125,728 -14.72185,0"
         style="fill:none;stroke:#000000;stroke-opacity:1;stroke-width:0.4;stroke-linecap:butt;stroke-linejoin:round;stroke-miterlimit:10;stroke-dasharray:none"
         id="path106" /></g><g
       id="g108"><path
         d="m 202.61032,728 0,8"
         style="fill:none;stroke:#000000;stroke-opacity:1;stroke-width:0.4;stroke-linecap:butt;stroke-linejoin:round;stroke-miterlimit:10;stroke-dasharray:none"
         id="path110" /></g><g
       id="g112"><path
         d="m 132.68158,640 0,-528 -44.165517,0"
         style="fill:none;stroke:#000000;stroke-opacity:1;stroke-width:0.4;stroke-linecap:butt;stroke-linejoin:round;stroke-miterlimit:10;stroke-dasharray:none"
         id="path114" /></g><g
       id="g116"><path
         d="m 221.01263,640 0,-528 -44.16553,0"
         style="fill:none;stroke:#000000;stroke-opacity:1;stroke-width:0.4;stroke-linecap:butt;stroke-linejoin:round;stroke-miterlimit:10;stroke-dasharray:none"
         id="path118" /></g><g
       id="g120"><path
         d="m 309.34367,640 0,-528 -44.16552,0"
         style="fill:none;stroke:#000000;stroke-opacity:1;stroke-width:0.4;stroke-linecap:butt;stroke-linejoin:round;stroke-miterlimit:10;stroke-dasharray:none"
         id="path122" /></g><g
       id="g124"><path
         d="m 397.67471,640 0,-528 -44.16552,0"
         style="fill:none;stroke:#000000;stroke-opacity:1;stroke-width:0.4;stroke-linecap:butt;stroke-linejoin:round;stroke-miterlimit:10;stroke-dasharray:none"
         id="path126" /></g><g
       id="g128"><path
         d="m 137.88654,112 c 0,3.12419 -2.33034,5.65685 -5.20496,5.65685 -2.87461,0 -5.20495,-2.53266 -5.20495,-5.65685 0,-3.12419 2.33034,-5.65685 5.20495,-5.65685 2.87462,0 5.20496,2.53266 5.20496,5.65685 z"
         style="fill:#000000;fill-opacity:1;fill-rule:evenodd;stroke:#000000;stroke-opacity:1;stroke-width:0.4;stroke-linecap:butt;stroke-linejoin:round;stroke-miterlimit:10;stroke-dasharray:none"
         id="path130" /></g><g
       id="g132"><path
         d="m 226.21758,112 c 0,3.12419 -2.33034,5.65685 -5.20495,5.65685 -2.87462,0 -5.20496,-2.53266 -5.20496,-5.65685 0,-3.12419 2.33034,-5.65685 5.20496,-5.65685 2.87461,0 5.20495,2.53266 5.20495,5.65685 z"
         style="fill:#000000;fill-opacity:1;fill-rule:evenodd;stroke:#000000;stroke-opacity:1;stroke-width:0.4;stroke-linecap:butt;stroke-linejoin:round;stroke-miterlimit:10;stroke-dasharray:none"
         id="path134" /></g><g
       id="g136"><path
         d="m 314.54862,112 c 0,3.12419 -2.33034,5.65685 -5.20495,5.65685 -2.87462,0 -5.20496,-2.53266 -5.20496,-5.65685 0,-3.12419 2.33034,-5.65685 5.20496,-5.65685 2.87461,0 5.20495,2.53266 5.20495,5.65685 z"
         style="fill:#000000;fill-opacity:1;fill-rule:evenodd;stroke:#000000;stroke-opacity:1;stroke-width:0.4;stroke-linecap:butt;stroke-linejoin:round;stroke-miterlimit:10;stroke-dasharray:none"
         id="path138" /></g><g
       id="g140"><path
         d="m 402.87966,112 c 0,3.12419 -2.33034,5.65685 -5.20495,5.65685 -2.87462,0 -5.20495,-2.53266 -5.20495,-5.65685 0,-3.12419 2.33033,-5.65685 5.20495,-5.65685 2.87461,0 5.20495,2.53266 5.20495,5.65685 z"
         style="fill:#000000;fill-opacity:1;fill-rule:evenodd;stroke:#000000;stroke-opacity:1;stroke-width:0.4;stroke-linecap:butt;stroke-linejoin:round;stroke-miterlimit:10;stroke-dasharray:none"
         id="path142" /></g><g
       id="g144"><path
         d="m 520.65438,112 c 0,3.12419 -2.33033,5.65685 -5.20495,5.65685 -2.87461,0 -5.20495,-2.53266 -5.20495,-5.65685 0,-3.12419 2.33034,-5.65685 5.20495,-5.65685 2.87462,0 5.20495,2.53266 5.20495,5.65685 z"
         style="fill:#000000;fill-opacity:1;fill-rule:evenodd;stroke:#000000;stroke-opacity:1;stroke-width:0.4;stroke-linecap:butt;stroke-linejoin:round;stroke-miterlimit:10;stroke-dasharray:none"
         id="path146" /></g><g
       id="g148"><path
         d="m 564.8199,112 c 0,3.12419 -2.33033,5.65685 -5.20495,5.65685 -2.87461,0 -5.20495,-2.53266 -5.20495,-5.65685 0,-3.12419 2.33034,-5.65685 5.20495,-5.65685 2.87462,0 5.20495,2.53266 5.20495,5.65685 z"
         style="fill:#000000;fill-opacity:1;fill-rule:evenodd;stroke:#000000;stroke-opacity:1;stroke-width:0.4;stroke-linecap:butt;stroke-linejoin:round;stroke-miterlimit:10;stroke-dasharray:none"
         id="path150" /></g><g
       id="g152"><path
         d="m 508.08851,640 14.72184,0 0,32 -14.72184,0 0,-32 z"
         style="fill:none;stroke:#000000;stroke-opacity:1;stroke-width:0.4;stroke-linecap:butt;stroke-linejoin:round;stroke-miterlimit:10;stroke-dasharray:none"
         id="path154" /></g><g
       id="g156"><path
         d="m 552.25403,640 14.72184,0 0,32 -14.72184,0 0,-32 z"
         style="fill:none;stroke:#000000;stroke-opacity:1;stroke-width:0.4;stroke-linecap:butt;stroke-linejoin:round;stroke-miterlimit:10;stroke-dasharray:none"
         id="path158" /></g><g
       id="g160"><path
         d="m 515.44943,672 0,16"
         style="fill:none;stroke:#000000;stroke-opacity:1;stroke-width:0.4;stroke-linecap:butt;stroke-linejoin:round;stroke-miterlimit:10;stroke-dasharray:none"
         id="path162" /></g><g
       id="g164"><path
         d="m 559.61495,672 0,16"
         style="fill:none;stroke:#000000;stroke-opacity:1;stroke-width:0.4;stroke-linecap:butt;stroke-linejoin:round;stroke-miterlimit:10;stroke-dasharray:none"
         id="path166" /></g><g
       id="g168"><path
         d="m 29.628702,600 29.443681,0 0,16 -29.443681,0 0,-16 z"
         style="fill:none;stroke:#000000;stroke-opacity:1;stroke-width:0.4;stroke-linecap:butt;stroke-linejoin:round;stroke-miterlimit:10;stroke-dasharray:none"
         id="path170" /></g><g
       id="g172"><path
         d="m 29.628702,608 -14.72184,0"
         style="fill:none;stroke:#000000;stroke-opacity:1;stroke-width:0.4;stroke-linecap:butt;stroke-linejoin:round;stroke-miterlimit:10;stroke-dasharray:none"
         id="path174" /></g><g
       id="g176"
       transform="translate(1.861942,600.011)"><g
         id="g178"
         transform="translate(0,-776.022)"><text
           transform="matrix(1,0,0,-1,0,776.022)"
           id="text180"><tspan
             style="fill:#000000;fill-opacity:1;fill-rule:nonzero;stroke:none;font-family:CMR17;font-variant:normal;font-weight:normal;font-size:24.7871;writing-mode:lr;-inkscape-font-specification:CMR17"
             x="0"
             y="0"
             id="tspan182">1</tspan></text>
</g></g><g
       id="g184"><path
         d="m 29.628702,552 29.443681,0 0,16 -29.443681,0 0,-16 z"
         style="fill:none;stroke:#000000;stroke-opacity:1;stroke-width:0.4;stroke-linecap:butt;stroke-linejoin:round;stroke-miterlimit:10;stroke-dasharray:none"
         id="path186" /></g><g
       id="g188"><path
         d="m 29.628702,560 -14.72184,0"
         style="fill:none;stroke:#000000;stroke-opacity:1;stroke-width:0.4;stroke-linecap:butt;stroke-linejoin:round;stroke-miterlimit:10;stroke-dasharray:none"
         id="path190" /></g><g
       id="g192"
       transform="translate(1.861942,552.011)"><g
         id="g194"
         transform="translate(0,-776.022)"><text
           transform="matrix(1,0,0,-1,0,776.022)"
           id="text196"><tspan
             style="fill:#000000;fill-opacity:1;fill-rule:nonzero;stroke:none;font-family:CMR17;font-variant:normal;font-weight:normal;font-size:24.7871;writing-mode:lr;-inkscape-font-specification:CMR17"
             x="0"
             y="0"
             id="tspan198">1</tspan></text>
</g></g><g
       id="g200"><path
         d="m 29.628702,216 29.443681,0 0,16 -29.443681,0 0,-16 z"
         style="fill:none;stroke:#000000;stroke-opacity:1;stroke-width:0.4;stroke-linecap:butt;stroke-linejoin:round;stroke-miterlimit:10;stroke-dasharray:none"
         id="path202" /></g><g
       id="g204"><path
         d="m 29.628702,224 -14.72184,0"
         style="fill:none;stroke:#000000;stroke-opacity:1;stroke-width:0.4;stroke-linecap:butt;stroke-linejoin:round;stroke-miterlimit:10;stroke-dasharray:none"
         id="path206" /></g><g
       id="g208"
       transform="translate(1.861942,216.011)"><g
         id="g210"
         transform="translate(0,-776.022)"><text
           transform="matrix(1,0,0,-1,0,776.022)"
           id="text212"><tspan
             style="fill:#000000;fill-opacity:1;fill-rule:nonzero;stroke:none;font-family:CMR17;font-variant:normal;font-weight:normal;font-size:24.7871;writing-mode:lr;-inkscape-font-specification:CMR17"
             x="0"
             y="0"
             id="tspan214">1</tspan></text>
</g></g><g
       id="g216"><path
         d="m 29.628702,168 29.443681,0 0,16 -29.443681,0 0,-16 z"
         style="fill:none;stroke:#000000;stroke-opacity:1;stroke-width:0.4;stroke-linecap:butt;stroke-linejoin:round;stroke-miterlimit:10;stroke-dasharray:none"
         id="path218" /></g><g
       id="g220"><path
         d="m 29.628702,176 -14.72184,0"
         style="fill:none;stroke:#000000;stroke-opacity:1;stroke-width:0.4;stroke-linecap:butt;stroke-linejoin:round;stroke-miterlimit:10;stroke-dasharray:none"
         id="path222" /></g><g
       id="g224"
       transform="translate(1.861942,168.011)"><g
         id="g226"
         transform="translate(0,-776.022)"><text
           transform="matrix(1,0,0,-1,0,776.022)"
           id="text228"><tspan
             style="fill:#000000;fill-opacity:1;fill-rule:nonzero;stroke:none;font-family:CMR17;font-variant:normal;font-weight:normal;font-size:24.7871;writing-mode:lr;-inkscape-font-specification:CMR17"
             x="0"
             y="0"
             id="tspan230">1</tspan></text>
</g></g><g
       id="g232"><path
         d="m 29.628702,312 29.443681,0 0,16 -29.443681,0 0,-16 z"
         style="fill:none;stroke:#000000;stroke-opacity:1;stroke-width:0.4;stroke-linecap:butt;stroke-linejoin:round;stroke-miterlimit:10;stroke-dasharray:none"
         id="path234" /></g><g
       id="g236"><path
         d="m 29.628702,320 -14.72184,0"
         style="fill:none;stroke:#000000;stroke-opacity:1;stroke-width:0.4;stroke-linecap:butt;stroke-linejoin:round;stroke-miterlimit:10;stroke-dasharray:none"
         id="path238" /></g><g
       id="g240"
       transform="translate(1.861942,312.011)"><g
         id="g242"
         transform="translate(0,-776.022)"><text
           transform="matrix(1,0,0,-1,0,776.022)"
           id="text244"><tspan
             style="fill:#000000;fill-opacity:1;fill-rule:nonzero;stroke:none;font-family:CMR17;font-variant:normal;font-weight:normal;font-size:24.7871;writing-mode:lr;-inkscape-font-specification:CMR17"
             x="0"
             y="0"
             id="tspan246">1</tspan></text>
</g></g><g
       id="g248"><path
         d="m 29.628702,264 29.443681,0 0,16 -29.443681,0 0,-16 z"
         style="fill:none;stroke:#000000;stroke-opacity:1;stroke-width:0.4;stroke-linecap:butt;stroke-linejoin:round;stroke-miterlimit:10;stroke-dasharray:none"
         id="path250" /></g><g
       id="g252"><path
         d="m 29.628702,272 -14.72184,0"
         style="fill:none;stroke:#000000;stroke-opacity:1;stroke-width:0.4;stroke-linecap:butt;stroke-linejoin:round;stroke-miterlimit:10;stroke-dasharray:none"
         id="path254" /></g><g
       id="g256"
       transform="translate(1.861942,264.011)"><g
         id="g258"
         transform="translate(0,-776.022)"><text
           transform="matrix(1,0,0,-1,0,776.022)"
           id="text260"><tspan
             style="fill:#000000;fill-opacity:1;fill-rule:nonzero;stroke:none;font-family:CMR17;font-variant:normal;font-weight:normal;font-size:24.7871;writing-mode:lr;-inkscape-font-specification:CMR17"
             x="0"
             y="0"
             id="tspan262">1</tspan></text>
</g></g><g
       id="g264"><path
         d="m 29.628702,408 29.443681,0 0,16 -29.443681,0 0,-16 z"
         style="fill:none;stroke:#000000;stroke-opacity:1;stroke-width:0.4;stroke-linecap:butt;stroke-linejoin:round;stroke-miterlimit:10;stroke-dasharray:none"
         id="path266" /></g><g
       id="g268"><path
         d="m 29.628702,416 -14.72184,0"
         style="fill:none;stroke:#000000;stroke-opacity:1;stroke-width:0.4;stroke-linecap:butt;stroke-linejoin:round;stroke-miterlimit:10;stroke-dasharray:none"
         id="path270" /></g><g
       id="g272"
       transform="translate(1.861942,408.011)"><g
         id="g274"
         transform="translate(0,-776.022)"><text
           transform="matrix(1,0,0,-1,0,776.022)"
           id="text276"><tspan
             style="fill:#000000;fill-opacity:1;fill-rule:nonzero;stroke:none;font-family:CMR17;font-variant:normal;font-weight:normal;font-size:24.7871;writing-mode:lr;-inkscape-font-specification:CMR17"
             x="0"
             y="0"
             id="tspan278">1</tspan></text>
</g></g><g
       id="g280"><path
         d="m 29.628702,360 29.443681,0 0,16 -29.443681,0 0,-16 z"
         style="fill:none;stroke:#000000;stroke-opacity:1;stroke-width:0.4;stroke-linecap:butt;stroke-linejoin:round;stroke-miterlimit:10;stroke-dasharray:none"
         id="path282" /></g><g
       id="g284"><path
         d="m 29.628702,368 -14.72184,0"
         style="fill:none;stroke:#000000;stroke-opacity:1;stroke-width:0.4;stroke-linecap:butt;stroke-linejoin:round;stroke-miterlimit:10;stroke-dasharray:none"
         id="path286" /></g><g
       id="g288"
       transform="translate(1.861942,360.011)"><g
         id="g290"
         transform="translate(0,-776.022)"><text
           transform="matrix(1,0,0,-1,0,776.022)"
           id="text292"><tspan
             style="fill:#000000;fill-opacity:1;fill-rule:nonzero;stroke:none;font-family:CMR17;font-variant:normal;font-weight:normal;font-size:24.7871;writing-mode:lr;-inkscape-font-specification:CMR17"
             x="0"
             y="0"
             id="tspan294">1</tspan></text>
</g></g><g
       id="g296"><path
         d="m 29.628702,504 29.443681,0 0,16 -29.443681,0 0,-16 z"
         style="fill:none;stroke:#000000;stroke-opacity:1;stroke-width:0.4;stroke-linecap:butt;stroke-linejoin:round;stroke-miterlimit:10;stroke-dasharray:none"
         id="path298" /></g><g
       id="g300"><path
         d="m 29.628702,512 -14.72184,0"
         style="fill:none;stroke:#000000;stroke-opacity:1;stroke-width:0.4;stroke-linecap:butt;stroke-linejoin:round;stroke-miterlimit:10;stroke-dasharray:none"
         id="path302" /></g><g
       id="g304"
       transform="translate(1.861942,504.011)"><g
         id="g306"
         transform="translate(0,-776.022)"><text
           transform="matrix(1,0,0,-1,0,776.022)"
           id="text308"><tspan
             style="fill:#000000;fill-opacity:1;fill-rule:nonzero;stroke:none;font-family:CMR17;font-variant:normal;font-weight:normal;font-size:24.7871;writing-mode:lr;-inkscape-font-specification:CMR17"
             x="0"
             y="0"
             id="tspan310">1</tspan></text>
</g></g><g
       id="g312"><path
         d="m 29.628702,456 29.443681,0 0,16 -29.443681,0 0,-16 z"
         style="fill:none;stroke:#000000;stroke-opacity:1;stroke-width:0.4;stroke-linecap:butt;stroke-linejoin:round;stroke-miterlimit:10;stroke-dasharray:none"
         id="path314" /></g><g
       id="g316"><path
         d="m 29.628702,464 -14.72184,0"
         style="fill:none;stroke:#000000;stroke-opacity:1;stroke-width:0.4;stroke-linecap:butt;stroke-linejoin:round;stroke-miterlimit:10;stroke-dasharray:none"
         id="path318" /></g><g
       id="g320"
       transform="translate(1.861942,456.011)"><g
         id="g322"
         transform="translate(0,-776.022)"><text
           transform="matrix(1,0,0,-1,0,776.022)"
           id="text324"><tspan
             style="fill:#000000;fill-opacity:1;fill-rule:nonzero;stroke:none;font-family:CMR17;font-variant:normal;font-weight:normal;font-size:24.7871;writing-mode:lr;-inkscape-font-specification:CMR17"
             x="0"
             y="0"
             id="tspan326">1</tspan></text>
</g></g><g
       id="g328"
       transform="translate(509.76543,696.011)"><g
         id="g330"
         transform="translate(0,-776.022)"><text
           transform="matrix(1,0,0,-1,0,776.022)"
           id="text332"><tspan
             style="fill:#000000;fill-opacity:1;fill-rule:nonzero;stroke:none;font-family:CMR17;font-variant:normal;font-weight:normal;font-size:24.7871;writing-mode:lr;-inkscape-font-specification:CMR17"
             x="0"
             y="0"
             id="tspan334">1</tspan></text>
</g></g><g
       id="g336"
       transform="translate(553.93095,696.011)"><g
         id="g338"
         transform="translate(0,-776.022)"><text
           transform="matrix(1,0,0,-1,0,776.022)"
           id="text340"><tspan
             style="fill:#000000;fill-opacity:1;fill-rule:nonzero;stroke:none;font-family:CMR17;font-variant:normal;font-weight:normal;font-size:24.7871;writing-mode:lr;-inkscape-font-specification:CMR17"
             x="0"
             y="0"
             id="tspan342">1</tspan></text>
</g></g><g
       id="g416"><path
         d="m 108.26458,736 c 0,0.80804 -0.60272,1.46309 -1.34622,1.46309 -0.74349,0 -1.34621,-0.65505 -1.34621,-1.46309 0,-0.80804 0.60272,-1.46309 1.34621,-1.46309 0.7435,0 1.34622,0.65505 1.34622,1.46309 z"
         style="fill:#000000;fill-opacity:1;fill-rule:evenodd;stroke:#000000;stroke-opacity:1;stroke-width:0.4;stroke-linecap:butt;stroke-linejoin:round;stroke-miterlimit:10;stroke-dasharray:none"
         id="path418" /></g><g
       id="g420"><path
         d="m 89.862274,716 c 0,0.80804 -0.602719,1.46309 -1.346211,1.46309 -0.743492,0 -1.346211,-0.65505 -1.346211,-1.46309 0,-0.80804 0.602719,-1.46309 1.346211,-1.46309 0.743492,0 1.346211,0.65505 1.346211,1.46309 z"
         style="fill:#000000;fill-opacity:1;fill-rule:evenodd;stroke:#000000;stroke-opacity:1;stroke-width:0.4;stroke-linecap:butt;stroke-linejoin:round;stroke-miterlimit:10;stroke-dasharray:none"
         id="path422" /></g><g
       id="g424"><path
         d="m 203.95654,736 c 0,0.80804 -0.60272,1.46309 -1.34622,1.46309 -0.74349,0 -1.34621,-0.65505 -1.34621,-1.46309 0,-0.80804 0.60272,-1.46309 1.34621,-1.46309 0.7435,0 1.34622,0.65505 1.34622,1.46309 z"
         style="fill:#000000;fill-opacity:1;fill-rule:evenodd;stroke:#000000;stroke-opacity:1;stroke-width:0.4;stroke-linecap:butt;stroke-linejoin:round;stroke-miterlimit:10;stroke-dasharray:none"
         id="path426" /></g><g
       id="g428"><path
         d="m 222.35884,716 c 0,0.80804 -0.60272,1.46309 -1.34621,1.46309 -0.7435,0 -1.34622,-0.65505 -1.34622,-1.46309 0,-0.80804 0.60272,-1.46309 1.34622,-1.46309 0.74349,0 1.34621,0.65505 1.34621,1.46309 z"
         style="fill:#000000;fill-opacity:1;fill-rule:evenodd;stroke:#000000;stroke-opacity:1;stroke-width:0.4;stroke-linecap:butt;stroke-linejoin:round;stroke-miterlimit:10;stroke-dasharray:none"
         id="path430" /></g><g
       id="g432"><path
         d="m 180.52756,708 14.72184,0"
         style="fill:none;stroke:#000000;stroke-opacity:1;stroke-width:0.4;stroke-linecap:butt;stroke-linejoin:round;stroke-miterlimit:10;stroke-dasharray:none"
         id="path434" /></g><g
       id="g436"><path
         d="m 184.20802,704 7.36093,0"
         style="fill:none;stroke:#000000;stroke-opacity:1;stroke-width:0.4;stroke-linecap:butt;stroke-linejoin:round;stroke-miterlimit:10;stroke-dasharray:none"
         id="path438" /></g><g
       id="g440"><path
         d="m 187.88849,716 0,-8"
         style="fill:none;stroke:#000000;stroke-opacity:1;stroke-width:0.4;stroke-linecap:butt;stroke-linejoin:round;stroke-miterlimit:10;stroke-dasharray:none"
         id="path442" /></g></g></svg>